<svg id="Component_91_1" data-name="Component 91 – 1" xmlns="http://www.w3.org/2000/svg" width="36.9" height="36.9" viewBox="0 0 36.9 36.9">
  <g id="Group_9274" data-name="Group 9274" transform="translate(5.766 9.225)">
    <path id="Path_51816" data-name="Path 51816" d="M17.7,26.45h-.009c-3.991,0-7.973-2.347-11.831-6.963a3.764,3.764,0,0,1,.046-4.844C9.746,10.236,13.7,8,17.667,8h.009c3.974,0,7.94,2.253,11.79,6.689A3.757,3.757,0,0,1,29.5,19.53C25.654,24.122,21.682,26.449,17.7,26.45Zm-.033-15.988c-3.232,0-6.574,1.955-9.931,5.807h0A1.264,1.264,0,0,0,7.721,17.9c3.375,4.037,6.731,6.085,9.972,6.088H17.7c3.235,0,6.581-2.034,9.947-6.049a1.262,1.262,0,0,0-.012-1.627c-3.367-3.879-6.718-5.847-9.96-5.85Z" transform="translate(-5 -8)" fill="#14161f"/>
    <path id="Path_51817" data-name="Path 51817" d="M16.7,22.092a5.3,5.3,0,1,1,5.306-5.3A5.311,5.311,0,0,1,16.7,22.092Zm0-8.072a2.767,2.767,0,1,0,2.766,2.768A2.77,2.77,0,0,0,16.7,14.02Z" transform="translate(-4.02 -7.467)" fill="#14161f"/>
  </g>
  <rect id="Rectangle_6944" data-name="Rectangle 6944" width="36.9" height="36.9" fill="none"/>
</svg>
