<svg id="Component_90_1" data-name="Component 90 – 1" xmlns="http://www.w3.org/2000/svg" width="36.9" height="36.9" viewBox="0 0 36.9 36.9">
  <g id="Group_9272" data-name="Group 9272" transform="translate(7.163 6.278)">
    <path id="Path_51814" data-name="Path 51814" d="M16.694,15.144a4.7,4.7,0,1,1,4.7-4.7A4.7,4.7,0,0,1,16.694,15.144Zm0-7.068a2.371,2.371,0,1,0,2.371,2.371A2.372,2.372,0,0,0,16.694,8.076Z" transform="translate(-5.546 -5.75)" fill="#14161f"/>
    <path id="Path_51815" data-name="Path 51815" d="M27.567,28.088a1.239,1.239,0,0,1-1.24-1.239,8.673,8.673,0,0,0-17.346,0,1.239,1.239,0,0,1-2.479,0,11.152,11.152,0,0,1,22.3,0A1.238,1.238,0,0,1,27.567,28.088Z" transform="translate(-6.503 -4.016)" fill="#14161f"/>
  </g>
  <rect id="Rectangle_6943" data-name="Rectangle 6943" width="36.9" height="36.9" fill="none"/>
</svg>
